#!OML:ASF H:\Terrain\Patient Classification 1\Walking\steve\steve.ASF
:FULLY-SPECIFIED
:DEGREES
186
root 9.45481 16.3199 13.9565 8.73567 3.15411 5.41954
lowerback 0.181314 -0.594808 -7.82989
upperback -2.3681 -0.925026 -0.460268
thorax -2.44442 -0.303683 3.93234
lowerneck -8.62626 -1.92276 -2.63173
upperneck 10.786 -2.76183 4.30354
head 4.74554 -1.19818 1.57658
rclavicle 4.95719e-015 -3.67752e-015
rhumerus -70.9434 -30.5581 -39.2354
rradius 16.1308
rwrist 29.5578
rhand -19.8098 -37.4598
rfingers 7.12502
rthumb 6.52341 -67.3394
lclavicle 4.95719e-015 -3.67752e-015
lhumerus -13.6938 -18.2796 86.3807
lradius 53.8705
lwrist 25.7326
lhand -24.2856 -14.1446
lfingers 7.12502
lthumb 2.2015 15.8238
rfemur -46.3228 -3.07538 18.5071
rtibia 27.5562
rfoot -17.406 8.58645
rtoes -11.4385
lfemur 15.7657 -0.433576 -28.9887
ltibia -4.77083e-014
lfoot -2.41182 -8.92819
ltoes 2.71971
187
root 9.45146 16.2855 14.2033 8.8131 3.63301 5.46474
lowerback 0.235094 -0.74515 -7.71374
upperback -2.44514 -1.13029 -0.363001
thorax -2.52871 -0.402126 3.97369
lowerneck -8.62288 -1.89721 -2.44591
upperneck 10.8786 -2.69099 3.78013
head 4.76134 -1.1874 1.38895
rclavicle 6.98231e-015 -1.5704e-014
rhumerus -71.179 -29.9156 -39.2347
rradius 16.1439
rwrist 28.8993
rhand -19.8731 -37.9788
rfingers 7.12502
rthumb 6.46237 -67.8602
lclavicle 6.98231e-015 -1.5704e-014
lhumerus -13.3358 -18.2319 86.2667
lradius 54.8242
lwrist 25.449
lhand -23.9928 -14.9329
lfingers 7.12502
lthumb 2.48431 15.0324
rfemur -46.6081 -2.84283 18.2081
rtibia 27.5678
rfoot -18.1634 8.50713
rtoes -11.6019
lfemur 16.6138 -1.01404 -28.8888
ltibia 6.04305e-014
lfoot -1.85389 -8.98835
ltoes 0.670059
188
root 9.44199 16.2329 14.4623 8.50216 3.75848 5.63283
lowerback 0.536127 -0.762759 -7.88752
upperback -2.40586 -1.18185 -0.306838
thorax -2.64816 -0.419891 4.13537
lowerneck -8.736 -1.82937 -2.02376
upperneck 11.1012 -2.57417 3.07946
head 4.83074 -1.15364 1.10999
rclavicle 4.99446e-015 6.75868e-015
rhumerus -72.2516 -30.2816 -37.12
rradius 15.9898
rwrist 29.9914
rhand -19.385 -38.1515
rfingers 7.12502
rthumb 6.93354 -68.0179
lclavicle 4.99446e-015 6.75868e-015
lhumerus -13.1929 -18.2505 86.1209
lradius 55.9079
lwrist 25.0958
lhand -23.9051 -16.0281
lfingers 7.12502
lthumb 2.56902 13.9361
rfemur -46.4063 -2.45267 17.9043
rtibia 27.7863
rfoot -18.232 8.57652
rtoes -11.9913
lfemur 17.8932 -1.21756 -28.9239
ltibia -6.67916e-014
lfoot -0.738589 -9.013
ltoes 3.23685
189
root 9.4349 16.1811 14.7116 8.35235 3.90121 5.69241
lowerback 0.992829 -0.772211 -7.82584
upperback -2.53904 -1.2409 -0.250356
thorax -3.03751 -0.431125 4.17076
lowerneck -8.88234 -1.8089 -1.95056
upperneck 11.3777 -2.51044 2.6791
head 4.93293 -1.14191 0.976762
rclavicle 8.44835e-015 -3.37934e-015
rhumerus -73.8044 -31.1282 -33.7135
rradius 15.4617
rwrist 32.2308
rhand -19.2522 -38.2298
rfingers 7.12502
rthumb 7.06175 -68.092
lclavicle 8.44835e-015 -3.37934e-015
lhumerus -13.4377 -18.187 86.0983
lradius 57.1215
lwrist 24.9088
lhand -24.1103 -16.9411
lfingers 7.12502
lthumb 2.37079 13.0255
rfemur -46.3142 -1.74797 17.5085
rtibia 28.2863
rfoot -17.8944 8.38818
rtoes -11.3406
lfemur 18.9306 -1.44488 -28.8713
ltibia 2.54444e-014
lfoot 0.423829 -8.9163
ltoes 5.00781
190
root 9.43069 16.1342 14.9666 7.99772 3.92318 5.66858
lowerback 1.52355 -0.703336 -7.57345
upperback -2.55005 -1.18927 -0.193713
thorax -3.35809 -0.398334 4.0964
lowerneck -8.85595 -1.81352 -2.27117
upperneck 11.3002 -2.46858 2.66333
head 4.90726 -1.13665 1.02741
rclavicle 7.45443e-017 8.54774e-015
rhumerus -74.7591 -31.4676 -31.7732
rradius 15.2599
rwrist 33.3566
rhand -19.3428 -38.0169
rfingers 7.12502
rthumb 6.97421 -67.8821
lclavicle 7.45443e-017 8.54774e-015
lhumerus -13.5013 -18.0133 86.1548
lradius 57.9273
lwrist 24.7996
lhand -24.2209 -17.5365
lfingers 7.12502
lthumb 2.26406 12.4312
rfemur -45.8223 -1.00813 17.2742
rtibia 28.8591
rfoot -16.4876 7.96824
rtoes -9.19924
lfemur 20.263 -1.52018 -28.7368
ltibia 5.725e-014
lfoot 1.1214 -8.92644
ltoes -0.685686
191
root 9.43677 16.0865 15.259 7.24786 3.21874 5.26106
lowerback 1.64745 -0.390811 -6.95101
upperback -2.26607 -0.747137 -0.0726338
thorax -3.18915 -0.205748 3.85531
lowerneck -8.58371 -1.75742 -2.51046
upperneck 10.8969 -2.35456 2.6431
head 4.73685 -1.09547 1.07072
rclavicle 4.63417e-015 -1.66979e-014
rhumerus -74.6841 -31.1244 -32.1596
rradius 15.6383
rwrist 32.521
rhand -18.8415 -38.1892
rfingers 7.12502
rthumb 7.45819 -68.0377
lclavicle 4.63417e-015 -1.66979e-014
lhumerus -13.5124 -17.8824 86.1502
lradius 58.5965
lwrist 24.6967
lhand -24.2795 -17.7565
lfingers 7.12502
lthumb 2.20741 12.2119
rfemur -45.0619 -0.622659 18.1394
rtibia 30.0614
rfoot -13.0401 7.66871
rtoes -5.32213
lfemur 22.1151 -0.81798 -28.1952
ltibia 7.63333e-014
lfoot 2.5423 -8.75406
ltoes -2.12317
192
root 9.39744 16.0905 15.4315 9.18768 5.43432 5.69276
lowerback 1.28988 -1.23487 -7.24536
upperback -3.0586 -1.88244 0.05806
thorax -3.66944 -0.723709 4.20169
lowerneck -8.65557 -1.70856 -2.49044
upperneck 10.8269 -2.25311 2.35461
head 4.72121 -1.0623 0.984654
rclavicle 3.41661e-014 1.98785e-015
rhumerus -74.3168 -30.77 -32.7903
rradius 15.8333
rwrist 31.9609
rhand -18.33 -38.8495
rfingers 7.12502
rthumb 7.95186 -68.6799
lclavicle 3.41661e-014 1.98785e-015
lhumerus -13.653 -17.5482 86.1452
lradius 59.2832
lwrist 24.5898
lhand -24.8859 -17.844
lfingers 7.12502
lthumb 1.62175 12.1296
rfemur -47.0758 -1.58561 17.4262
rtibia 31.4815
rfoot -9.27246 3.46965
rtoes -3.29489
lfemur 20.5099 -3.43336 -28.0953
ltibia 4.45278e-014
lfoot 5.76813 -7.41739
ltoes 0.985036
193
root 9.45596 16.0204 15.8187 7.0616 2.56294 4.83815
lowerback 0.980837 -0.205237 -5.82129
upperback -2.04375 -0.406988 0.0592622
thorax -2.62106 -0.0832143 3.33842
lowerneck -9.00277 -1.7256 -2.48421
upperneck 10.9269 -2.23786 2.08747
head 4.80688 -1.06878 0.899234
rclavicle -2.83268e-015 1.27222e-014
rhumerus -74.682 -31.1476 -31.5536
rradius 15.5004
rwrist 33.3796
rhand -18.3076 -38.4774
rfingers 7.12502
rthumb 7.97351 -68.307
lclavicle -2.83268e-015 1.27222e-014
lhumerus -13.7666 -17.1232 86.284
lradius 59.6632
lwrist 24.3545
lhand -25.7554 -18.2723
lfingers 7.12502
lthumb 0.782027 11.706
rfemur -45.1336 -0.45959 19.0282
rtibia 33.3945
rfoot -6.39413 4.72921
rtoes -8.44845
lfemur 24.2646 -0.324435 -27.6859
ltibia 6.36111e-015
lfoot 7.17077 -7.15909
ltoes -0.664419
194
root 9.45298 16.014 16.0901 6.81716 2.33948 4.73888
lowerback 1.07553 -0.109742 -5.51072
upperback -2.00163 -0.275707 0.121483
thorax -2.64365 -0.0236332 3.22465
lowerneck -9.22899 -1.69184 -2.60599
upperneck 11.0728 -2.17379 2.10253
head 4.88989 -1.03998 0.926212
rclavicle -1.14301e-015 -2.5842e-014
rhumerus -74.8872 -31.3832 -30.7567
rradius 15.3291
rwrist 34.2986
rhand -18.3227 -37.5178
rfingers 7.12502
rthumb 7.95887 -67.3479
lclavicle -1.14301e-015 -2.5842e-014
lhumerus -14.1633 -16.7937 86.3991
lradius 59.9984
lwrist 24.3569
lhand -26.2327 -18.7965
lfingers 7.12502
lthumb 0.320993 11.183
rfemur -45.0692 0.486894 18.7494
rtibia 35.5213
rfoot -5.53463 3.72836
rtoes -5.59043
lfemur 21.8865 -0.188575 -27.2902
ltibia 6.43987
lfoot 7.71898 -7.06148
ltoes 3.58218
195
root 9.44826 15.9795 16.3531 6.64871 1.90845 4.50326
lowerback 1.17225 -0.00509031 -5.18912
upperback -2.04235 -0.131833 0.265331
thorax -2.7533 0.0468758 3.18842
lowerneck -9.39878 -1.5526 -2.71566
upperneck 11.4223 -1.96117 2.02934
head 5.02178 -0.944245 0.93477
rclavicle 1.43125e-014 -1.23246e-014
rhumerus -75.2756 -31.7899 -29.4163
rradius 15.223
rwrist 35.8555
rhand -18.1168 -37.3415
rfingers 7.12502
rthumb 8.15762 -67.1641
lclavicle 1.43125e-014 -1.23246e-014
lhumerus -14.8918 -16.2157 86.5483
lradius 60.3918
lwrist 24.6949
lhand -26.4305 -19.1684
lfingers 7.12502
lthumb 0.129916 10.8113
rfemur -45.2566 1.45757 18.7615
rtibia 37.7894
rfoot -5.68461 3.04335
rtoes -1.60863
lfemur 20.1444 0.175555 -26.8604
ltibia 11.4344
lfoot 8.83584 -4.93029
ltoes 15.3272
196
root 9.45625 15.9561 16.6126 6.57621 1.63959 4.61935
lowerback 1.31087 0.0365949 -5.06343
upperback -2.12828 -0.081546 0.333003
thorax -2.92489 0.0762 3.18646
lowerneck -9.4739 -1.41983 -2.92076
upperneck 11.6927 -1.72936 1.85082
head 5.11301 -0.851506 0.928691
rclavicle 9.34288e-015 -5.56597e-015
rhumerus -76.4328 -32.8083 -26.2517
rradius 14.8598
rwrist 39.2047
rhand -18.2272 -37.7937
rfingers 7.12502
rthumb 8.05105 -67.6204
lclavicle 9.34288e-015 -5.56597e-015
lhumerus -15.6986 -15.4189 86.89
lradius 60.6592
lwrist 24.881
lhand -26.5912 -19.0145
lfingers 7.12502
lthumb -0.0252392 10.9652
rfemur -45.392 1.61106 18.6535
rtibia 39.7843
rfoot -6.20326 2.96327
rtoes -4.26369
lfemur 17.5978 -0.0585891 -27.0002
ltibia 17.6727
lfoot 8.16831 -2.48004
ltoes 17.2276
